<?xml version="1.0" standalone="no"?>
<!DOCTYPE svg PUBLIC "-//W3C//DTD SVG 20010904//EN"
 "http://www.w3.org/TR/2001/REC-SVG-20010904/DTD/svg10.dtd">
<svg version="1.0" xmlns="http://www.w3.org/2000/svg"
 width="210.000000pt" height="210.000000pt" viewBox="0 0 210.000000 210.000000"
 preserveAspectRatio="xMidYMid meet">
<metadata>
Created by potrace 1.11, written by Peter Selinger 2001-2013
</metadata>
<g transform="translate(0.000000,210.000000) scale(0.100000,-0.100000)"
fill="#000000" stroke="none">
<path d="M12 1515 c3 -3 21 -18 40 -33 55 -42 282 -225 294 -237 6 -5 31 -26
56 -45 43 -33 46 -39 58 -105 7 -38 14 -79 16 -90 2 -11 18 -109 36 -217 30
-181 38 -214 44 -172 3 20 35 213 40 239 2 11 6 31 8 45 3 14 8 41 11 60 21
142 34 203 42 209 6 3 53 41 104 83 52 43 148 121 214 174 66 53 111 94 100
90 -11 -3 -134 -52 -273 -109 l-254 -104 -265 109 c-258 105 -282 114 -271
103z"/>
<path d="M1535 1468 c-4 -29 -9 -62 -10 -73 -3 -17 -17 -99 -29 -160 -2 -11
-7 -40 -11 -65 -4 -25 -9 -52 -10 -60 -2 -8 -6 -35 -9 -60 -16 -108 -17 -111
-106 -183 -47 -38 -98 -80 -115 -94 -16 -14 -76 -61 -132 -106 -56 -45 -100
-83 -98 -85 2 -3 186 69 250 98 66 29 271 110 280 110 10 0 81 -28 444 -176
46 -19 86 -33 87 -31 2 2 -93 81 -211 176 -118 95 -216 180 -219 189 -5 20
-14 63 -21 112 -3 19 -7 46 -10 60 -3 14 -7 39 -10 55 -40 240 -57 340 -60
343 -1 1 -6 -21 -10 -50z"/>
</g>
</svg>
